<svg width="104" height="102" viewBox="0 0 104 102" fill="none" xmlns="http://www.w3.org/2000/svg">
<path d="M95.94 64.77H92.32V93.05L95.94 94.02L96.18 78.8L99.32 94.75L103.19 95.96L99.08 77.11L102.95 64.79H99.08L95.94 75.67V64.79V64.77Z" fill="white"/>
<path d="M86.52 76.12L89.9 76.36V66.94C89.82 66.3 88.45 64.52 85.07 64.52C81.38 64.52 80.32 66.61 80.24 67.9V88.2C80.24 89.25 81.21 91.49 85.07 92.07C88.94 92.65 89.9 90.86 89.9 89.9V80.72L86.52 80V87.73C86.28 88.05 85.65 88.7 85.07 88.7C84.49 88.7 83.86 88.06 83.62 87.73V68.64C83.62 68.4 83.91 67.92 85.07 67.92C86.23 67.92 86.52 68.4 86.52 68.64V76.13V76.12Z" fill="white"/>
<path d="M33.35 101.5L35.04 92.8H39.63L33.35 101.5V101.5Z" fill="white"/>
<path d="M66.7 38.67L64.53 36.74L65.5 32.87C67.05 33.26 70.98 36.9 72.75 38.67H66.71H66.7Z" fill="white"/>
<path d="M76.12 43.5L73.22 47.12C75.93 51.76 75.8 58.4 75.4 61.14H79.27C80.43 53.79 77.66 46.32 76.13 43.5H76.12Z" fill="white"/>
<path d="M24.41 61.38L27.79 56.3C28.76 44.31 37.7 37.29 42.05 35.28L44.71 30.69C43.18 30.45 36.01 31.66 29.24 40.6C23.05 48.78 23.36 56.71 24.41 61.38V61.38Z" fill="white"/>
<path d="M60.66 41.81L69.6 0L30.21 58.97H42.53V60.9H60.65L72.98 41.81H60.65H60.66Z" fill="white"/>
<path d="M65.25 69.84C65.44 65.98 63.88 64.85 63.08 64.77H55.58V88.69H64.04C64.44 88.61 65.25 87.19 65.25 82.17C65.25 77.15 63.8 75.24 63.08 74.92C63.72 74.84 65.06 73.71 65.25 69.84V69.84ZM61.86 86.63H58.25V76.57H61.86V86.63ZM61.86 72.89H58.25V66.83H61.86V72.89Z" fill="white"/>
<path d="M7.25 64.77H0V95.95L3.62 94.74V76.62H7V72.51H3.62V68.4H7.24V64.78L7.25 64.77Z" fill="white"/>
<path d="M8.93999 93.77V64.77H12.32V88.94H15.94V92.32L8.92999 93.77H8.93999Z" fill="white"/>
<path d="M39.88 66.94V72.5H36.5V68.63C35.34 67.08 34.08 67.99 33.6 68.63V73.46L39.88 77.33V87.48C35.82 91.73 31.58 89.25 29.97 87.48V79.75H33.35V85.55C34.51 86.9 35.77 86.11 36.25 85.55V79.27L30.21 74.44V66.95C30.6 65.4 31.98 64.53 32.63 64.29H37.22C38.57 64.29 39.56 66.06 39.88 66.95V66.94Z" fill="white"/>
<path d="M45.92 64.77H42.3V88.7H45.92V75.65H49.06V88.7H52.44V64.77H49.06V72.74H45.92V64.77V64.77Z" fill="white"/>
<path d="M22.73 64.52C19.63 64.52 18.21 66.62 17.89 67.67L17.65 91.35L21.03 91.11V85.07H24.18V90.62L27.56 90.38V67.67C27.24 66.62 25.82 64.52 22.73 64.52V64.52ZM24.41 82.87H20.8V69.45C20.8 68.46 21.61 67.65 22.6 67.65C23.59 67.65 24.41 68.46 24.41 69.45V82.87Z" fill="white"/>
<path d="M72.74 64.52C69.65 64.52 68.23 66.62 67.91 67.67L67.67 89.42H71.05V85.07H74.19V90.14L77.57 90.38V67.67C77.25 66.62 75.83 64.52 72.74 64.52V64.52ZM74.43 82.87H70.81V69.45C70.81 68.46 71.62 67.65 72.62 67.65C73.62 67.65 74.43 68.46 74.43 69.45V82.87Z" fill="white"/>
</svg>
